<svg xmlns="http://www.w3.org/2000/svg" width="1380" height="820" viewBox="0 0 1380 820">
  <defs>
    <pattern id="grid" width="24" height="24" patternUnits="userSpaceOnUse"><circle cx="1" cy="1" r="1" fill="#dce3f0"/></pattern>
    <filter id="shadow" x="-20%" y="-20%" width="140%" height="140%"><feDropShadow dx="0" dy="8" stdDeviation="10" flood-color="#1c2b4a" flood-opacity="0.10"/></filter>
  </defs>
  <style>
    .canvas { fill: #fff; }
    .grid { fill: url(#grid); }
    .title { font: 700 27px Arial, sans-serif; fill: #182033; }
    .subtitle { font: 400 13px Arial, sans-serif; fill: #69738d; }
    .table-bg { fill: #fff; stroke: #cfd8ea; stroke-width: 1.2; filter: url(#shadow); }
    .table-head, .table-head-square { fill: #f4f7fc; }
    .table-head { stroke: #cfd8ea; stroke-width: 1.2; }
    .table-title { font: 700 13px Arial, sans-serif; fill: #17213a; }
    .table-count { font: 400 10px Arial, sans-serif; fill: #8a94aa; text-anchor: end; }
    .col-name { font: 600 11px Arial, sans-serif; fill: #2c3650; }
    .col-type { font: 400 10px Arial, sans-serif; fill: #8a94aa; text-anchor: end; }
    .chip.pk { fill: #e8f1ff; stroke: #4f7cff; }
    .chip.fk { fill: #fff3df; stroke: #d08000; }
    .chip.uk { fill: #edf8f2; stroke: #1a9e6a; }
    .chip-text { font: 700 8px Arial, sans-serif; fill: #31405f; text-anchor: middle; }
    .rel { fill: none; stroke: #7588ad; stroke-width: 1.45; opacity: .72; }
    .rel-dot { fill: #4f7cff; }
    .crow { fill: none; stroke: #7588ad; stroke-width: 1.45; stroke-linecap: round; stroke-linejoin: round; }
    .rel-label { font: 500 9px Arial, sans-serif; fill: #65728d; paint-order: stroke; stroke: #fff; stroke-width: 4px; stroke-linejoin: round; }
  </style>
  <rect width="1380" height="820" class="canvas"/>
  <rect width="1380" height="820" class="grid"/>
  <text x="42" y="46" class="title">Project AZAG ERD · 01 Core Project</text>
  <text x="42" y="70" class="subtitle">Users, teams, projects, memberships</text>
  <g>
      <path d="M310,499 C296,443 424,443 410,388" class="rel"/>
      <circle cx="310" cy="499" r="3.5" class="rel-dot"/>
      <path d="M401,383 L410,388 L401,393" class="crow"/>
      <text x="346" y="443" class="rel-label">has</text>
    

      <path d="M310,233 C310,310 410,310 410,388" class="rel"/>
      <circle cx="310" cy="233" r="3.5" class="rel-dot"/>
      <path d="M401,383 L410,388 L401,393" class="crow"/>
      <text x="360" y="310" class="rel-label">creates</text>
    

      <path d="M650,388 C700,402 700,316 750,330" class="rel"/>
      <circle cx="650" cy="388" r="3.5" class="rel-dot"/>
      <path d="M741,325 L750,330 L741,335" class="crow"/>
      <text x="700" y="373" class="rel-label">has</text>
    

      <path d="M310,233 C530,219 530,344 750,330" class="rel"/>
      <circle cx="310" cy="233" r="3.5" class="rel-dot"/>
      <path d="M741,325 L750,330 L741,335" class="crow"/>
      <text x="530" y="267" class="rel-label">joins</text>
    </g>
  <g>
    <g class="table">
      <rect x="70" y="130" width="240" height="207" rx="10" class="table-bg"/>
      <rect x="70" y="130" width="240" height="34" rx="10" class="table-head"/>
      <rect x="70" y="156" width="240" height="8" class="table-head-square"/>
      <text x="86" y="153" class="table-title">USERS</text>
      <text x="294" y="153" class="table-count">7 cols</text>
      <rect x="84" y="171" width="25" height="15" rx="4" class="chip pk"/><text x="96.5" y="182" class="chip-text">PK</text><text x="118" y="185" class="col-name">id</text><text x="294" y="185" class="col-type">uuid</text><text x="88" y="208" class="col-name">name</text><text x="294" y="208" class="col-type">string</text><rect x="84" y="217" width="25" height="15" rx="4" class="chip uk"/><text x="96.5" y="228" class="chip-text">UK</text><text x="118" y="231" class="col-name">email</text><text x="294" y="231" class="col-type">string</text><text x="88" y="254" class="col-name">password_hash</text><text x="294" y="254" class="col-type">text</text><text x="88" y="277" class="col-name">role</text><text x="294" y="277" class="col-type">string</text><text x="88" y="300" class="col-name">created_at</text><text x="294" y="300" class="col-type">timestamp</text><text x="88" y="323" class="col-name">updated_at</text><text x="294" y="323" class="col-type">timestamp</text>
    </g>
    

    <g class="table">
      <rect x="70" y="430" width="240" height="138" rx="10" class="table-bg"/>
      <rect x="70" y="430" width="240" height="34" rx="10" class="table-head"/>
      <rect x="70" y="456" width="240" height="8" class="table-head-square"/>
      <text x="86" y="453" class="table-title">TEAMS</text>
      <text x="294" y="453" class="table-count">4 cols</text>
      <rect x="84" y="471" width="25" height="15" rx="4" class="chip pk"/><text x="96.5" y="482" class="chip-text">PK</text><text x="118" y="485" class="col-name">id</text><text x="294" y="485" class="col-type">uuid</text><text x="88" y="508" class="col-name">name</text><text x="294" y="508" class="col-type">string</text><text x="88" y="531" class="col-name">created_at</text><text x="294" y="531" class="col-type">timestamp</text><text x="88" y="554" class="col-name">updated_at</text><text x="294" y="554" class="col-type">timestamp</text>
    </g>
    

    <g class="table">
      <rect x="410" y="250" width="240" height="276" rx="10" class="table-bg"/>
      <rect x="410" y="250" width="240" height="34" rx="10" class="table-head"/>
      <rect x="410" y="276" width="240" height="8" class="table-head-square"/>
      <text x="426" y="273" class="table-title">PROJECTS</text>
      <text x="634" y="273" class="table-count">10 cols</text>
      <rect x="424" y="291" width="25" height="15" rx="4" class="chip pk"/><text x="436.5" y="302" class="chip-text">PK</text><text x="458" y="305" class="col-name">id</text><text x="634" y="305" class="col-type">uuid</text><rect x="424" y="314" width="25" height="15" rx="4" class="chip fk"/><text x="436.5" y="325" class="chip-text">FK</text><text x="458" y="328" class="col-name">team_id</text><text x="634" y="328" class="col-type">uuid</text><rect x="424" y="337" width="25" height="15" rx="4" class="chip fk"/><text x="436.5" y="348" class="chip-text">FK</text><text x="458" y="351" class="col-name">created_by</text><text x="634" y="351" class="col-type">uuid</text><text x="428" y="374" class="col-name">name</text><text x="634" y="374" class="col-type">string</text><text x="428" y="397" class="col-name">description</text><text x="634" y="397" class="col-type">text</text><text x="428" y="420" class="col-name">status</text><text x="634" y="420" class="col-type">string</text><text x="428" y="443" class="col-name">start_date</text><text x="634" y="443" class="col-type">date</text><text x="428" y="466" class="col-name">end_date</text><text x="634" y="466" class="col-type">date</text><text x="428" y="489" class="col-name">created_at</text><text x="634" y="489" class="col-type">timestamp</text><text x="428" y="512" class="col-name">updated_at</text><text x="634" y="512" class="col-type">timestamp</text>
    </g>
    

    <g class="table">
      <rect x="750" y="250" width="240" height="161" rx="10" class="table-bg"/>
      <rect x="750" y="250" width="240" height="34" rx="10" class="table-head"/>
      <rect x="750" y="276" width="240" height="8" class="table-head-square"/>
      <text x="766" y="273" class="table-title">PROJECT_MEMBERS</text>
      <text x="974" y="273" class="table-count">5 cols</text>
      <rect x="764" y="291" width="25" height="15" rx="4" class="chip pk"/><text x="776.5" y="302" class="chip-text">PK</text><text x="798" y="305" class="col-name">id</text><text x="974" y="305" class="col-type">uuid</text><rect x="764" y="314" width="25" height="15" rx="4" class="chip fk"/><text x="776.5" y="325" class="chip-text">FK</text><text x="798" y="328" class="col-name">project_id</text><text x="974" y="328" class="col-type">uuid</text><rect x="764" y="337" width="25" height="15" rx="4" class="chip fk"/><text x="776.5" y="348" class="chip-text">FK</text><text x="798" y="351" class="col-name">user_id</text><text x="974" y="351" class="col-type">uuid</text><text x="768" y="374" class="col-name">role</text><text x="974" y="374" class="col-type">string</text><text x="768" y="397" class="col-name">joined_at</text><text x="974" y="397" class="col-type">timestamp</text>
    </g>
    </g>
</svg>
