<svg xmlns="http://www.w3.org/2000/svg" width="1380" height="820" viewBox="0 0 1380 820">
  <defs>
    <pattern id="grid" width="24" height="24" patternUnits="userSpaceOnUse"><circle cx="1" cy="1" r="1" fill="#dce3f0"/></pattern>
    <filter id="shadow" x="-20%" y="-20%" width="140%" height="140%"><feDropShadow dx="0" dy="8" stdDeviation="10" flood-color="#1c2b4a" flood-opacity="0.10"/></filter>
  </defs>
  <style>
    .canvas { fill: #fff; }
    .grid { fill: url(#grid); }
    .title { font: 700 27px Arial, sans-serif; fill: #182033; }
    .subtitle { font: 400 13px Arial, sans-serif; fill: #69738d; }
    .table-bg { fill: #fff; stroke: #cfd8ea; stroke-width: 1.2; filter: url(#shadow); }
    .table-head, .table-head-square { fill: #f4f7fc; }
    .table-head { stroke: #cfd8ea; stroke-width: 1.2; }
    .table-title { font: 700 13px Arial, sans-serif; fill: #17213a; }
    .table-count { font: 400 10px Arial, sans-serif; fill: #8a94aa; text-anchor: end; }
    .col-name { font: 600 11px Arial, sans-serif; fill: #2c3650; }
    .col-type { font: 400 10px Arial, sans-serif; fill: #8a94aa; text-anchor: end; }
    .chip.pk { fill: #e8f1ff; stroke: #4f7cff; }
    .chip.fk { fill: #fff3df; stroke: #d08000; }
    .chip.uk { fill: #edf8f2; stroke: #1a9e6a; }
    .chip-text { font: 700 8px Arial, sans-serif; fill: #31405f; text-anchor: middle; }
    .rel { fill: none; stroke: #7588ad; stroke-width: 1.45; opacity: .72; }
    .rel-dot { fill: #4f7cff; }
    .crow { fill: none; stroke: #7588ad; stroke-width: 1.45; stroke-linecap: round; stroke-linejoin: round; }
    .rel-label { font: 500 9px Arial, sans-serif; fill: #65728d; paint-order: stroke; stroke: #fff; stroke-width: 4px; stroke-linejoin: round; }
  </style>
  <rect width="1380" height="820" class="canvas"/>
  <rect width="1380" height="820" class="grid"/>
  <text x="42" y="46" class="title">Project AZAG ERD · 04 Reports / Handoff</text>
  <text x="42" y="70" class="subtitle">Weekly and monthly reports, handoff, AI summary source</text>
  <g>
      <path d="M310,298 C296,235 424,235 410,173" class="rel"/>
      <circle cx="310" cy="298" r="3.5" class="rel-dot"/>
      <path d="M401,168 L410,173 L401,178" class="crow"/>
      <text x="346" y="235" class="rel-label">has</text>
    

      <path d="M310,623 C310,398 410,398 410,173" class="rel"/>
      <circle cx="310" cy="623" r="3.5" class="rel-dot"/>
      <path d="M401,168 L410,173 L401,178" class="crow"/>
      <text x="360" y="398" class="rel-label">creates</text>
    

      <path d="M310,298 C324,380 396,380 410,463" class="rel"/>
      <circle cx="310" cy="298" r="3.5" class="rel-dot"/>
      <path d="M401,458 L410,463 L401,468" class="crow"/>
      <text x="374" y="380" class="rel-label">has</text>
    

      <path d="M310,623 C296,543 424,543 410,463" class="rel"/>
      <circle cx="310" cy="623" r="3.5" class="rel-dot"/>
      <path d="M401,458 L410,463 L401,468" class="crow"/>
      <text x="346" y="543" class="rel-label">creates</text>
    

      <path d="M310,298 C530,298 530,173 750,173" class="rel"/>
      <circle cx="310" cy="298" r="3.5" class="rel-dot"/>
      <path d="M741,168 L750,173 L741,178" class="crow"/>
      <text x="530" y="235" class="rel-label">has</text>
    

      <path d="M310,623 C324,398 736,398 750,173" class="rel"/>
      <circle cx="310" cy="623" r="3.5" class="rel-dot"/>
      <path d="M741,168 L750,173 L741,178" class="crow"/>
      <text x="544" y="398" class="rel-label">creates</text>
    

      <path d="M310,298 C530,284 530,527 750,513" class="rel"/>
      <circle cx="310" cy="298" r="3.5" class="rel-dot"/>
      <path d="M741,508 L750,513 L741,518" class="crow"/>
      <text x="530" y="391" class="rel-label">has</text>
    </g>
  <g>
    <g class="table">
      <rect x="70" y="160" width="240" height="276" rx="10" class="table-bg"/>
      <rect x="70" y="160" width="240" height="34" rx="10" class="table-head"/>
      <rect x="70" y="186" width="240" height="8" class="table-head-square"/>
      <text x="86" y="183" class="table-title">PROJECTS</text>
      <text x="294" y="183" class="table-count">10 cols</text>
      <rect x="84" y="201" width="25" height="15" rx="4" class="chip pk"/><text x="96.5" y="212" class="chip-text">PK</text><text x="118" y="215" class="col-name">id</text><text x="294" y="215" class="col-type">uuid</text><rect x="84" y="224" width="25" height="15" rx="4" class="chip fk"/><text x="96.5" y="235" class="chip-text">FK</text><text x="118" y="238" class="col-name">team_id</text><text x="294" y="238" class="col-type">uuid</text><rect x="84" y="247" width="25" height="15" rx="4" class="chip fk"/><text x="96.5" y="258" class="chip-text">FK</text><text x="118" y="261" class="col-name">created_by</text><text x="294" y="261" class="col-type">uuid</text><text x="88" y="284" class="col-name">name</text><text x="294" y="284" class="col-type">string</text><text x="88" y="307" class="col-name">description</text><text x="294" y="307" class="col-type">text</text><text x="88" y="330" class="col-name">status</text><text x="294" y="330" class="col-type">string</text><text x="88" y="353" class="col-name">start_date</text><text x="294" y="353" class="col-type">date</text><text x="88" y="376" class="col-name">end_date</text><text x="294" y="376" class="col-type">date</text><text x="88" y="399" class="col-name">created_at</text><text x="294" y="399" class="col-type">timestamp</text><text x="88" y="422" class="col-name">updated_at</text><text x="294" y="422" class="col-type">timestamp</text>
    </g>
    

    <g class="table">
      <rect x="70" y="520" width="240" height="207" rx="10" class="table-bg"/>
      <rect x="70" y="520" width="240" height="34" rx="10" class="table-head"/>
      <rect x="70" y="546" width="240" height="8" class="table-head-square"/>
      <text x="86" y="543" class="table-title">USERS</text>
      <text x="294" y="543" class="table-count">7 cols</text>
      <rect x="84" y="561" width="25" height="15" rx="4" class="chip pk"/><text x="96.5" y="572" class="chip-text">PK</text><text x="118" y="575" class="col-name">id</text><text x="294" y="575" class="col-type">uuid</text><text x="88" y="598" class="col-name">name</text><text x="294" y="598" class="col-type">string</text><rect x="84" y="607" width="25" height="15" rx="4" class="chip uk"/><text x="96.5" y="618" class="chip-text">UK</text><text x="118" y="621" class="col-name">email</text><text x="294" y="621" class="col-type">string</text><text x="88" y="644" class="col-name">password_hash</text><text x="294" y="644" class="col-type">text</text><text x="88" y="667" class="col-name">role</text><text x="294" y="667" class="col-type">string</text><text x="88" y="690" class="col-name">created_at</text><text x="294" y="690" class="col-type">timestamp</text><text x="88" y="713" class="col-name">updated_at</text><text x="294" y="713" class="col-type">timestamp</text>
    </g>
    

    <g class="table">
      <rect x="410" y="70" width="240" height="207" rx="10" class="table-bg"/>
      <rect x="410" y="70" width="240" height="34" rx="10" class="table-head"/>
      <rect x="410" y="96" width="240" height="8" class="table-head-square"/>
      <text x="426" y="93" class="table-title">WEEKLY_REPORTS</text>
      <text x="634" y="93" class="table-count">7 cols</text>
      <rect x="424" y="111" width="25" height="15" rx="4" class="chip pk"/><text x="436.5" y="122" class="chip-text">PK</text><text x="458" y="125" class="col-name">id</text><text x="634" y="125" class="col-type">uuid</text><rect x="424" y="134" width="25" height="15" rx="4" class="chip fk"/><text x="436.5" y="145" class="chip-text">FK</text><text x="458" y="148" class="col-name">project_id</text><text x="634" y="148" class="col-type">uuid</text><rect x="424" y="157" width="25" height="15" rx="4" class="chip fk"/><text x="436.5" y="168" class="chip-text">FK</text><text x="458" y="171" class="col-name">created_by</text><text x="634" y="171" class="col-type">uuid</text><text x="428" y="194" class="col-name">week_start</text><text x="634" y="194" class="col-type">timestamp</text><text x="428" y="217" class="col-name">week_end</text><text x="634" y="217" class="col-type">timestamp</text><text x="428" y="240" class="col-name">content</text><text x="634" y="240" class="col-type">text</text><text x="428" y="263" class="col-name">progress_rate</text><text x="634" y="263" class="col-type">int</text>
    </g>
    

    <g class="table">
      <rect x="410" y="360" width="240" height="207" rx="10" class="table-bg"/>
      <rect x="410" y="360" width="240" height="34" rx="10" class="table-head"/>
      <rect x="410" y="386" width="240" height="8" class="table-head-square"/>
      <text x="426" y="383" class="table-title">MONTHLY_REPORTS</text>
      <text x="634" y="383" class="table-count">7 cols</text>
      <rect x="424" y="401" width="25" height="15" rx="4" class="chip pk"/><text x="436.5" y="412" class="chip-text">PK</text><text x="458" y="415" class="col-name">id</text><text x="634" y="415" class="col-type">uuid</text><rect x="424" y="424" width="25" height="15" rx="4" class="chip fk"/><text x="436.5" y="435" class="chip-text">FK</text><text x="458" y="438" class="col-name">project_id</text><text x="634" y="438" class="col-type">uuid</text><rect x="424" y="447" width="25" height="15" rx="4" class="chip fk"/><text x="436.5" y="458" class="chip-text">FK</text><text x="458" y="461" class="col-name">created_by</text><text x="634" y="461" class="col-type">uuid</text><text x="428" y="484" class="col-name">month_start</text><text x="634" y="484" class="col-type">timestamp</text><text x="428" y="507" class="col-name">month_end</text><text x="634" y="507" class="col-type">timestamp</text><text x="428" y="530" class="col-name">content</text><text x="634" y="530" class="col-type">text</text><text x="428" y="553" class="col-name">progress_rate</text><text x="634" y="553" class="col-type">int</text>
    </g>
    

    <g class="table">
      <rect x="750" y="70" width="240" height="207" rx="10" class="table-bg"/>
      <rect x="750" y="70" width="240" height="34" rx="10" class="table-head"/>
      <rect x="750" y="96" width="240" height="8" class="table-head-square"/>
      <text x="766" y="93" class="table-title">HANDOFF_REPORTS</text>
      <text x="974" y="93" class="table-count">7 cols</text>
      <rect x="764" y="111" width="25" height="15" rx="4" class="chip pk"/><text x="776.5" y="122" class="chip-text">PK</text><text x="798" y="125" class="col-name">id</text><text x="974" y="125" class="col-type">uuid</text><rect x="764" y="134" width="25" height="15" rx="4" class="chip fk"/><text x="776.5" y="145" class="chip-text">FK</text><text x="798" y="148" class="col-name">project_id</text><text x="974" y="148" class="col-type">uuid</text><rect x="764" y="157" width="25" height="15" rx="4" class="chip fk"/><text x="776.5" y="168" class="chip-text">FK</text><text x="798" y="171" class="col-name">created_by</text><text x="974" y="171" class="col-type">uuid</text><text x="768" y="194" class="col-name">title</text><text x="974" y="194" class="col-type">string</text><text x="768" y="217" class="col-name">content</text><text x="974" y="217" class="col-type">text</text><text x="768" y="240" class="col-name">handoff_score</text><text x="974" y="240" class="col-type">int</text><text x="768" y="263" class="col-name">missing_items_json</text><text x="974" y="263" class="col-type">jsonb</text>
    </g>
    

    <g class="table">
      <rect x="750" y="410" width="240" height="207" rx="10" class="table-bg"/>
      <rect x="750" y="410" width="240" height="34" rx="10" class="table-head"/>
      <rect x="750" y="436" width="240" height="8" class="table-head-square"/>
      <text x="766" y="433" class="table-title">AI_SUMMARIES</text>
      <text x="974" y="433" class="table-count">7 cols</text>
      <rect x="764" y="451" width="25" height="15" rx="4" class="chip pk"/><text x="776.5" y="462" class="chip-text">PK</text><text x="798" y="465" class="col-name">id</text><text x="974" y="465" class="col-type">uuid</text><rect x="764" y="474" width="25" height="15" rx="4" class="chip fk"/><text x="776.5" y="485" class="chip-text">FK</text><text x="798" y="488" class="col-name">project_id</text><text x="974" y="488" class="col-type">uuid</text><rect x="764" y="497" width="25" height="15" rx="4" class="chip fk"/><text x="776.5" y="508" class="chip-text">FK</text><text x="798" y="511" class="col-name">document_id</text><text x="974" y="511" class="col-type">uuid</text><text x="768" y="534" class="col-name">summary_type</text><text x="974" y="534" class="col-type">string</text><text x="768" y="557" class="col-name">summary</text><text x="974" y="557" class="col-type">text</text><text x="768" y="580" class="col-name">extracted_json</text><text x="974" y="580" class="col-type">jsonb</text><text x="768" y="603" class="col-name">created_at</text><text x="974" y="603" class="col-type">timestamp</text>
    </g>
    </g>
</svg>
